<?xml version="1.0" standalone="no"?>
<!DOCTYPE svg PUBLIC "-//W3C//DTD SVG 20010904//EN"
 "http://www.w3.org/TR/2001/REC-SVG-20010904/DTD/svg10.dtd">
<svg version="1.0" xmlns="http://www.w3.org/2000/svg"
 width="2048.000000pt" height="2048.000000pt" viewBox="0 0 2048.000000 2048.000000"
 preserveAspectRatio="xMidYMid meet">
<metadata>
Created by potrace 1.14, written by Peter Selinger 2001-2017
</metadata>
<g transform="translate(0.000000,2048.000000) scale(0.100000,-0.100000)"
fill="#000000" stroke="none">
<path d="M6860 20469 c-913 -34 -1820 -250 -2664 -634 -1131 -514 -2127 -1333
-2856 -2350 -688 -959 -1129 -2080 -1275 -3240 -63 -500 -60 -274 -60 -3985 0
-3688 -3 -3480 56 -3960 257 -2085 1449 -3974 3232 -5122 1087 -700 2320
-1083 3631 -1128 367 -13 6233 -13 6587 0 749 27 1391 143 2069 375 892 305
1670 752 2390 1374 186 161 551 525 711 711 1019 1183 1614 2612 1731 4160 19
257 19 6923 0 7180 -108 1425 -623 2757 -1500 3880 -255 325 -650 741 -947
996 -722 620 -1478 1055 -2369 1365 -653 226 -1326 351 -2056 379 -297 11
-6378 11 -6680 -1z m6390 -2854 c1095 -140 2002 -774 2475 -1730 174 -350 265
-651 321 -1055 22 -158 26 -650 6 -810 -70 -568 -262 -1080 -566 -1509 l-46
-64 41 -71 c188 -332 310 -671 374 -1037 51 -289 48 -158 52 -2779 4 -2489 3
-2602 -33 -2850 -149 -1032 -726 -1854 -1608 -2290 -337 -166 -646 -258 -1036
-307 -163 -20 -568 -23 -740 -4 -478 51 -922 197 -1301 428 l-107 65 -88 -55
c-386 -236 -800 -374 -1299 -433 -295 -35 -1158 -28 -1545 12 -1048 109 -1880
439 -2535 1005 -535 462 -926 1069 -1159 1798 -187 585 -256 1143 -256 2096
l-1 370 -80 49 c-425 257 -785 673 -1001 1157 -307 688 -350 1590 -112 2331
202 626 593 1136 1120 1459 l83 51 6 56 c22 208 30 263 56 397 117 598 381
1117 779 1529 405 420 908 700 1491 830 280 62 488 81 824 73 424 -9 748 -72
1125 -220 444 -174 885 -499 1178 -867 11 -14 22 -23 25 -20 2 3 18 55 35 117
105 379 321 796 574 1113 215 268 486 511 780 696 128 80 430 230 563 280 303
111 624 181 960 208 109 9 525 -3 645 -19z"/>
<path d="M12587 15984 c-593 -93 -1058 -473 -1257 -1029 -37 -102 -55 -175
-75 -299 -19 -118 -21 -358 -5 -478 101 -718 625 -1248 1345 -1359 44 -7 152
-12 240 -12 88 0 196 5 240 12 710 109 1233 630 1340 1335 29 191 16 478 -31
661 -143 559 -576 993 -1132 1135 -197 50 -473 64 -665 34z"/>
<path d="M7185 14693 c-525 -33 -957 -314 -1180 -768 -30 -60 -67 -153 -83
-205 -76 -245 -82 -313 -82 -972 l0 -548 -80 0 c-93 0 -241 -21 -352 -49 -372
-96 -670 -349 -812 -688 -158 -380 -136 -870 57 -1213 206 -369 593 -594 1059
-617 l127 -6 4 -1156 c5 -1186 5 -1201 48 -1496 169 -1176 810 -1894 1909
-2139 391 -87 686 -110 1310 -103 451 5 517 11 700 65 403 119 677 373 803
742 115 338 90 806 -60 1103 -114 227 -324 424 -562 527 -195 85 -351 117
-626 131 -258 12 -324 22 -402 61 -116 57 -191 159 -230 313 -17 65 -18 141
-18 1010 l0 940 410 6 c436 7 454 9 649 65 397 114 716 413 844 790 88 258 88
600 0 858 -61 181 -148 317 -292 462 -113 113 -216 186 -350 250 -123 58 -225
90 -401 126 -27 6 -232 13 -455 17 l-405 6 -6 615 c-4 367 -10 635 -17 665
-41 198 -77 308 -144 444 -136 273 -348 486 -623 624 -81 40 -227 88 -338 111
-74 16 -290 37 -332 34 -11 -1 -42 -3 -70 -5z"/>
<path d="M12595 12185 c-401 -64 -740 -280 -954 -610 -122 -186 -198 -401
-231 -648 -7 -52 -10 -880 -10 -2465 1 -2515 0 -2456 44 -2642 59 -249 179
-474 348 -655 263 -281 631 -435 1043 -435 400 0 750 141 1015 409 227 230
352 489 405 843 22 142 22 4821 1 4968 -50 337 -176 607 -390 828 -216 224
-483 360 -798 407 -118 18 -361 18 -473 0z"/>
</g>
</svg>
